<svg width="400" height="400" viewBox="0 0 400 400" fill="none" xmlns="http://www.w3.org/2000/svg">
<g clip-path="url(#clip0_9_215)">

<g clip-path="url(#clip1_9_215)">
<path fill-rule="evenodd" clip-rule="evenodd" d="M90.5632 187.655L0.713722 187.671C-4.12097 187.645 -8.09349 191.617 -8.07609 196.461C-8.10219 201.295 -4.14706 205.251 0.713721 205.251L90.5476 205.251C92.1505 205.251 93.4921 206.418 93.7186 207.968C96.5323 227.282 113.258 242.265 133.304 242.24L170.127 242.214C171.887 242.231 173.316 240.803 173.316 239.026L173.316 229.652C173.316 228.084 172.218 226.777 170.711 226.507C167.209 225.862 164.534 222.787 164.534 219.076C164.517 215.4 167.209 212.29 170.711 211.645C172.227 211.384 173.324 210.06 173.316 208.5L173.316 184.37C173.316 182.801 172.218 181.495 170.711 181.225C167.209 180.58 164.508 177.479 164.517 173.776C164.535 170.1 167.218 167.016 170.72 166.372C172.262 166.084 173.333 164.786 173.324 163.227L173.342 153.836C173.324 152.076 171.896 150.647 170.153 150.647L133.304 150.647C113.259 150.621 96.5236 165.614 93.7186 184.919C93.5008 186.478 92.1592 187.646 90.5738 187.611L90.5632 187.655Z" fill="#2563EB"/>
<path fill-rule="evenodd" clip-rule="evenodd" d="M225.651 239.064L225.625 229.856C225.642 228.097 224.196 226.65 222.436 226.668L198.462 226.65C194.316 226.65 190.927 223.262 190.927 219.115C190.927 214.968 194.316 211.58 198.462 211.58L222.436 211.562C224.196 211.58 225.624 210.151 225.625 208.374L225.651 184.583C225.633 182.823 224.204 181.395 222.462 181.395L198.471 181.395C194.324 181.395 190.936 178.006 190.936 173.859C190.909 169.687 194.298 166.298 198.471 166.324L222.445 166.307C224.205 166.324 225.651 164.878 225.633 163.118L225.633 153.884C225.633 152.142 227.062 150.713 228.822 150.696L265.645 150.722C285.69 150.696 302.425 165.689 305.23 184.993C305.448 186.553 306.79 187.72 308.401 187.711L398.235 187.711C403.07 187.685 407.042 191.658 407.025 196.501C407.051 201.336 403.096 205.291 398.235 205.291L308.401 205.291C306.798 205.291 305.457 206.458 305.23 208.009C302.417 227.322 285.674 242.288 265.645 242.281L228.848 242.281C227.071 242.281 225.642 240.852 225.659 239.092L225.651 239.064Z" fill="#2563EB"/>
</g>
</g>
<defs>
<clipPath id="clip0_9_215">
<rect width="400" height="400" fill="white"/>
</clipPath>
<clipPath id="clip1_9_215">
<rect width="346.926" height="425.773" fill="white" transform="translate(-57 185.314) rotate(-45)"/>
</clipPath>
</defs>
</svg>
