<svg width="2010" height="731" viewBox="0 0 2010 731" fill="none" xmlns="http://www.w3.org/2000/svg">
<g clip-path="url(#clip0_8_207)">
<rect width="2010" height="731" fill="white"/>
<path d="M215.942 363H138.598V144.818H216.581C238.527 144.818 257.419 149.186 273.257 157.922C289.095 166.587 301.275 179.051 309.798 195.315C318.392 211.58 322.689 231.04 322.689 253.696C322.689 276.423 318.392 295.955 309.798 312.29C301.275 328.625 289.024 341.161 273.044 349.896C257.135 358.632 238.101 363 215.942 363ZM184.727 323.476H214.024C227.66 323.476 239.131 321.061 248.434 316.232C257.809 311.331 264.841 303.767 269.528 293.54C274.287 283.241 276.666 269.96 276.666 253.696C276.666 237.574 274.287 224.399 269.528 214.172C264.841 203.945 257.845 196.416 248.541 191.587C239.237 186.757 227.767 184.342 214.131 184.342H184.727V323.476ZM424.581 366.196C407.749 366.196 393.26 362.787 381.115 355.969C369.041 349.08 359.737 339.349 353.203 326.778C346.669 314.136 343.402 299.186 343.402 281.928C343.402 265.095 346.669 250.322 353.203 237.609C359.737 224.896 368.935 214.989 380.796 207.886C392.727 200.784 406.719 197.233 422.77 197.233C433.566 197.233 443.615 198.973 452.919 202.453C462.294 205.862 470.462 211.011 477.422 217.901C484.453 224.79 489.922 233.455 493.828 243.895C497.735 254.264 499.688 266.409 499.688 280.33V292.794H361.513V264.669H456.968C456.968 258.135 455.547 252.347 452.706 247.304C449.865 242.261 445.923 238.32 440.881 235.479C435.909 232.567 430.121 231.111 423.516 231.111C416.627 231.111 410.519 232.709 405.192 235.905C399.936 239.03 395.817 243.256 392.834 248.582C389.851 253.838 388.324 259.697 388.253 266.161V292.901C388.253 300.997 389.744 307.993 392.727 313.888C395.781 319.783 400.078 324.328 405.618 327.524C411.158 330.72 417.727 332.318 425.327 332.318C430.369 332.318 434.986 331.608 439.176 330.188C443.367 328.767 446.953 326.636 449.936 323.795C452.919 320.955 455.192 317.474 456.754 313.355L498.729 316.125C496.598 326.21 492.23 335.017 485.625 342.545C479.091 350.003 470.639 355.827 460.27 360.017C449.972 364.136 438.075 366.196 424.581 366.196ZM671.466 199.364L614.258 363H563.121L505.912 199.364H553.853L587.837 316.445H589.542L623.42 199.364H671.466ZM882.05 221.203H835.388C834.536 215.166 832.796 209.804 830.168 205.116C827.54 200.358 824.167 196.31 820.047 192.972C815.928 189.634 811.17 187.077 805.772 185.301C800.445 183.526 794.657 182.638 788.407 182.638C777.114 182.638 767.278 185.443 758.897 191.054C750.516 196.594 744.018 204.69 739.401 215.344C734.785 225.926 732.476 238.781 732.476 253.909C732.476 269.463 734.785 282.531 739.401 293.114C744.089 303.696 750.623 311.686 759.003 317.084C767.384 322.482 777.079 325.18 788.087 325.18C794.266 325.18 799.983 324.364 805.239 322.73C810.566 321.097 815.289 318.717 819.408 315.592C823.528 312.396 826.937 308.526 829.635 303.98C832.405 299.435 834.323 294.25 835.388 288.426L882.05 288.639C880.843 298.653 877.824 308.312 872.995 317.616C868.236 326.849 861.809 335.124 853.712 342.439C845.687 349.683 836.099 355.436 824.948 359.697C813.868 363.888 801.333 365.983 787.341 365.983C767.881 365.983 750.481 361.58 735.14 352.773C719.87 343.966 707.796 331.217 698.918 314.527C690.111 297.837 685.708 277.631 685.708 253.909C685.708 230.116 690.182 209.875 699.131 193.185C708.08 176.494 720.225 163.781 735.566 155.045C750.907 146.239 768.165 141.835 787.341 141.835C799.983 141.835 811.702 143.611 822.498 147.162C833.364 150.713 842.988 155.898 851.368 162.716C859.749 169.463 866.567 177.737 871.823 187.538C877.15 197.339 880.559 208.561 882.05 221.203ZM982.211 366.196C965.663 366.196 951.352 362.68 939.278 355.649C927.275 348.547 918.007 338.675 911.473 326.033C904.939 313.32 901.672 298.582 901.672 281.821C901.672 264.918 904.939 250.145 911.473 237.503C918.007 224.79 927.275 214.918 939.278 207.886C951.352 200.784 965.663 197.233 982.211 197.233C998.76 197.233 1013.04 200.784 1025.04 207.886C1037.11 214.918 1046.42 224.79 1052.95 237.503C1059.48 250.145 1062.75 264.918 1062.75 281.821C1062.75 298.582 1059.48 313.32 1052.95 326.033C1046.42 338.675 1037.11 348.547 1025.04 355.649C1013.04 362.68 998.76 366.196 982.211 366.196ZM982.425 331.04C989.953 331.04 996.238 328.909 1001.28 324.648C1006.32 320.315 1010.12 314.42 1012.68 306.963C1015.31 299.506 1016.62 291.018 1016.62 281.501C1016.62 271.984 1015.31 263.497 1012.68 256.04C1010.12 248.582 1006.32 242.687 1001.28 238.355C996.238 234.023 989.953 231.857 982.425 231.857C974.825 231.857 968.433 234.023 963.248 238.355C958.135 242.687 954.264 248.582 951.636 256.04C949.079 263.497 947.801 271.984 947.801 281.501C947.801 291.018 949.079 299.506 951.636 306.963C954.264 314.42 958.135 320.315 963.248 324.648C968.433 328.909 974.825 331.04 982.425 331.04ZM1131.64 268.398V363H1086.26V199.364H1129.51V228.234H1131.43C1135.05 218.717 1141.13 211.189 1149.65 205.649C1158.17 200.038 1168.51 197.233 1180.65 197.233C1192.01 197.233 1201.92 199.719 1210.37 204.69C1218.83 209.662 1225.39 216.764 1230.08 225.997C1234.77 235.159 1237.11 246.097 1237.11 258.81V363H1191.73V266.906C1191.8 256.892 1189.24 249.08 1184.06 243.469C1178.87 237.787 1171.74 234.946 1162.65 234.946C1156.54 234.946 1151.14 236.26 1146.45 238.888C1141.84 241.516 1138.21 245.351 1135.59 250.393C1133.03 255.365 1131.72 261.366 1131.64 268.398ZM1312.27 268.398V363H1266.88V199.364H1310.14V228.234H1312.05C1315.67 218.717 1321.75 211.189 1330.27 205.649C1338.79 200.038 1349.13 197.233 1361.27 197.233C1372.64 197.233 1382.54 199.719 1390.99 204.69C1399.45 209.662 1406.02 216.764 1410.7 225.997C1415.39 235.159 1417.73 246.097 1417.73 258.81V363H1372.35V266.906C1372.42 256.892 1369.87 249.08 1364.68 243.469C1359.5 237.787 1352.36 234.946 1343.27 234.946C1337.16 234.946 1331.76 236.26 1327.07 238.888C1322.46 241.516 1318.84 245.351 1316.21 250.393C1313.65 255.365 1312.34 261.366 1312.27 268.398ZM1522.08 366.196C1505.24 366.196 1490.76 362.787 1478.61 355.969C1466.54 349.08 1457.23 339.349 1450.7 326.778C1444.17 314.136 1440.9 299.186 1440.9 281.928C1440.9 265.095 1444.17 250.322 1450.7 237.609C1457.23 224.896 1466.43 214.989 1478.29 207.886C1490.22 200.784 1504.22 197.233 1520.27 197.233C1531.06 197.233 1541.11 198.973 1550.42 202.453C1559.79 205.862 1567.96 211.011 1574.92 217.901C1581.95 224.79 1587.42 233.455 1591.32 243.895C1595.23 254.264 1597.18 266.409 1597.18 280.33V292.794H1459.01V264.669H1554.46C1554.46 258.135 1553.04 252.347 1550.2 247.304C1547.36 242.261 1543.42 238.32 1538.38 235.479C1533.41 232.567 1527.62 231.111 1521.01 231.111C1514.12 231.111 1508.01 232.709 1502.69 235.905C1497.43 239.03 1493.31 243.256 1490.33 248.582C1487.35 253.838 1485.82 259.697 1485.75 266.161V292.901C1485.75 300.997 1487.24 307.993 1490.22 313.888C1493.28 319.783 1497.57 324.328 1503.11 327.524C1508.65 330.72 1515.22 332.318 1522.82 332.318C1527.87 332.318 1532.48 331.608 1536.67 330.188C1540.86 328.767 1544.45 326.636 1547.43 323.795C1550.42 320.955 1552.69 317.474 1554.25 313.355L1596.22 316.125C1594.09 326.21 1589.73 335.017 1583.12 342.545C1576.59 350.003 1568.14 355.827 1557.77 360.017C1547.47 364.136 1535.57 366.196 1522.08 366.196ZM1694.73 366.196C1677.97 366.196 1663.56 362.645 1651.48 355.543C1639.48 348.369 1630.25 338.426 1623.78 325.713C1617.39 313 1614.2 298.369 1614.2 281.821C1614.2 265.06 1617.43 250.358 1623.89 237.716C1630.42 225.003 1639.69 215.095 1651.7 207.993C1663.7 200.82 1677.97 197.233 1694.52 197.233C1708.8 197.233 1721.3 199.825 1732.02 205.01C1742.75 210.195 1751.23 217.474 1757.48 226.849C1763.73 236.224 1767.18 247.233 1767.82 259.875H1724.99C1723.78 251.707 1720.59 245.138 1715.4 240.166C1710.29 235.124 1703.58 232.602 1695.27 232.602C1688.24 232.602 1682.09 234.52 1676.84 238.355C1671.65 242.119 1667.6 247.624 1664.69 254.868C1661.78 262.112 1660.32 270.884 1660.32 281.182C1660.32 291.622 1661.74 300.5 1664.59 307.815C1667.5 315.131 1671.58 320.706 1676.84 324.541C1682.09 328.376 1688.24 330.294 1695.27 330.294C1700.45 330.294 1705.1 329.229 1709.22 327.098C1713.41 324.967 1716.86 321.878 1719.56 317.83C1722.33 313.71 1724.14 308.774 1724.99 303.021H1767.82C1767.11 315.521 1763.7 326.53 1757.59 336.047C1751.55 345.493 1743.21 352.879 1732.55 358.206C1721.9 363.533 1709.29 366.196 1694.73 366.196ZM1877.91 199.364V233.455H1779.37V199.364H1877.91ZM1801.74 160.159H1847.12V312.716C1847.12 316.906 1847.76 320.173 1849.04 322.517C1850.32 324.79 1852.1 326.388 1854.37 327.311C1856.71 328.234 1859.41 328.696 1862.47 328.696C1864.6 328.696 1866.73 328.518 1868.86 328.163C1870.99 327.737 1872.62 327.418 1873.76 327.205L1880.9 360.976C1878.62 361.686 1875.43 362.503 1871.31 363.426C1867.19 364.42 1862.18 365.024 1856.29 365.237C1845.35 365.663 1835.76 364.207 1827.52 360.869C1819.35 357.531 1813 352.347 1808.45 345.315C1803.91 338.284 1801.67 329.406 1801.74 318.682V160.159Z" fill="#2563EB"/>
<path d="M127.901 460.75C118.374 460.805 110.695 468.573 110.75 478.099C110.805 487.626 118.573 495.305 128.099 495.25L127.901 460.75ZM648.901 457.75L127.901 460.75L128.099 495.25L649.099 492.25L648.901 457.75Z" fill="black"/>
<path d="M1918.1 489.25C1927.63 489.195 1935.3 481.427 1935.25 471.901C1935.19 462.374 1927.43 454.695 1917.9 454.75L1918.1 489.25ZM1917.9 454.75L1396.9 457.75L1397.1 492.25L1918.1 489.25L1917.9 454.75Z" fill="black"/>
<g clip-path="url(#clip1_8_207)">
<path fill-rule="evenodd" clip-rule="evenodd" d="M812.851 457.476L636.363 457.523C626.867 457.472 619.063 465.276 619.096 474.79C619.044 484.286 626.813 492.054 636.36 492.054L812.817 492.038C815.966 492.037 818.601 494.33 819.045 497.376C824.569 535.311 857.419 564.739 896.796 564.687L969.126 564.63C972.582 564.664 975.389 561.857 975.389 558.366L975.391 539.954C975.391 536.874 973.235 534.307 970.275 533.777C963.396 532.511 958.143 526.471 958.144 519.182C958.111 511.961 963.399 505.852 970.278 504.585C973.255 504.071 975.411 501.47 975.395 498.407L975.399 451.008C975.399 447.928 973.243 445.361 970.283 444.831C963.404 443.565 958.1 437.474 958.118 430.201C958.153 422.98 963.424 416.922 970.303 415.655C973.332 415.09 975.436 412.541 975.42 409.478L975.456 391.031C975.422 387.575 972.615 384.768 969.193 384.769L896.812 384.775C857.438 384.728 824.563 414.181 819.049 452.101C818.621 455.164 815.986 457.457 812.872 457.389L812.851 457.476Z" fill="black"/>
<path fill-rule="evenodd" clip-rule="evenodd" d="M1078.19 558.433L1078.14 540.346C1078.17 536.889 1075.33 534.049 1071.88 534.084L1024.79 534.054C1016.64 534.054 1009.99 527.399 1009.99 519.254C1009.99 511.109 1016.64 504.452 1024.79 504.451L1071.88 504.413C1075.34 504.446 1078.14 501.64 1078.14 498.149L1078.2 451.418C1078.16 447.961 1075.36 445.155 1071.94 445.156L1024.81 445.16C1016.67 445.161 1010.01 438.505 1010.01 430.36C1009.96 422.163 1016.62 415.506 1024.81 415.557L1071.9 415.519C1075.36 415.553 1078.2 412.712 1078.17 409.255L1078.17 391.117C1078.17 387.695 1080.98 384.889 1084.43 384.854L1156.76 384.898C1196.14 384.844 1229.01 414.292 1234.51 452.21C1234.94 455.273 1237.58 457.566 1240.74 457.548L1417.2 457.532C1426.7 457.48 1434.5 465.283 1434.46 474.796C1434.51 484.293 1426.74 492.062 1417.2 492.063L1240.74 492.079C1237.59 492.079 1234.95 494.372 1234.51 497.418C1228.98 535.355 1196.09 564.754 1156.75 564.744L1084.47 564.75C1080.98 564.75 1078.17 561.944 1078.21 558.488L1078.19 558.433Z" fill="black"/>
</g>
</g>
<defs>
<clipPath id="clip0_8_207">
<rect width="2010" height="731" fill="white"/>
</clipPath>
<clipPath id="clip1_8_207">
<rect width="681.513" height="836.253" fill="white" transform="translate(523 452.903) rotate(-45)"/>
</clipPath>
</defs>
</svg>
